<svg xmlns="http://www.w3.org/2000/svg" width="960" height="220" viewBox="0 0 960 220" role="img" aria-labelledby="title desc">
  <title id="title">Substation</title>
  <desc id="desc">Substation wordmark beside an electrical single-line motif.</desc>
  <rect width="960" height="220" rx="6" fill="#102b2b"/>
  <path d="M0 219H960" stroke="#76c6b3" stroke-width="2"/>
  <g fill="none" stroke="#254946" stroke-width="1">
    <path d="M600 0V220M680 0V220M760 0V220M840 0V220M920 0V220"/>
    <path d="M600 30H960M600 110H960M600 190H960"/>
  </g>
  <text x="44" y="142" fill="#f2efe6" font-family="-apple-system,BlinkMacSystemFont,'Segoe UI',Helvetica,Arial,sans-serif" font-size="92" font-weight="600" letter-spacing="-3">Substation</text>
  <g fill="none" stroke="#76c6b3" stroke-width="3">
    <path d="M628 110H666M722 110H758M758 48V172M758 48H902M758 110H902M758 172H902"/>
    <circle cx="686" cy="110" r="20"/>
    <circle cx="702" cy="110" r="20"/>
  </g>
  <g fill="#102b2b" stroke="#d9b16d" stroke-width="3">
    <path d="M796 41H810V55H796ZM796 103H810V117H796ZM796 165H810V179H796Z"/>
    <circle cx="908" cy="48" r="6"/>
    <circle cx="908" cy="110" r="6"/>
    <circle cx="908" cy="172" r="6"/>
  </g>
</svg>
